<svg width="85" height="85" viewBox="0 0 85 85" fill="none" xmlns="http://www.w3.org/2000/svg">
<path d="M13.6228 18.2995C13.6228 16.9402 14.7247 15.8383 16.084 15.8383H63.937C65.2963 15.8383 66.3982 16.9402 66.3982 18.2995V47.0721C66.3982 48.4314 65.2963 49.5333 63.937 49.5333H16.084C14.7247 49.5333 13.6228 48.4314 13.6228 47.0721V18.2995Z" fill="black"/>
<path d="M10.7393 15.4159C10.7393 14.0566 11.8412 12.9547 13.2005 12.9547H61.0535C62.4128 12.9547 63.5147 14.0566 63.5147 15.4159V44.1886C63.5147 45.5478 62.4128 46.6498 61.0535 46.6498H13.2005C11.8412 46.6498 10.7393 45.5478 10.7393 44.1886V15.4159Z" fill="white"/>
<path fill-rule="evenodd" clip-rule="evenodd" d="M13.2005 11.7241H61.0535C63.0924 11.7241 64.7453 13.377 64.7453 15.4159V44.1886C64.7453 46.2275 63.0924 47.8804 61.0535 47.8804H13.2005C11.1615 47.8804 9.50867 46.2275 9.50867 44.1886V15.4159C9.50867 13.377 11.1615 11.7241 13.2005 11.7241ZM13.2005 12.9547C11.8412 12.9547 10.7392 14.0567 10.7392 15.4159V44.1886C10.7392 45.5479 11.8412 46.6498 13.2005 46.6498H61.0535C62.4127 46.6498 63.5147 45.5479 63.5147 44.1886V15.4159C63.5147 14.0567 62.4127 12.9547 61.0535 12.9547H13.2005Z" fill="black"/>
<path fill-rule="evenodd" clip-rule="evenodd" d="M20.7958 24.9093C21.244 23.9833 22.563 23.9833 23.0112 24.9093L23.9462 26.8409L25.8967 27.0623C26.9277 27.1794 27.36 28.4414 26.6172 29.166L24.9814 30.7617L25.3734 32.3694C25.6324 33.4314 24.4815 34.2787 23.5443 33.7159L21.9035 32.7306L20.2627 33.7159C19.3256 34.2787 18.1747 33.4314 18.4336 32.3694L18.8257 30.7617L17.1899 29.166C16.4471 28.4414 16.8794 27.1794 17.9104 27.0623L19.8609 26.8409L20.7958 24.9093ZM22.8384 27.377L21.9035 25.4454L20.9686 27.377C20.7848 27.7569 20.4191 28.016 19.9998 28.0636L18.0492 28.2851L19.685 29.8808C19.9965 30.1847 20.1243 30.6305 20.0213 31.0533L19.6292 32.6609L21.27 31.6757C21.6599 31.4415 22.1471 31.4415 22.5371 31.6757L24.1778 32.6609L23.7858 31.0533C23.6827 30.6305 23.8106 30.1847 24.1221 29.8808L25.7579 28.2851L23.8073 28.0636C23.388 28.016 23.0223 27.7569 22.8384 27.377Z" fill="black"/>
<path fill-rule="evenodd" clip-rule="evenodd" d="M35.6861 24.9093C36.1343 23.9833 37.4533 23.9833 37.9015 24.9093L38.8364 26.8409L40.7869 27.0623C41.8179 27.1794 42.2502 28.4414 41.5074 29.166L39.8716 30.7617L40.2637 32.3694C40.5227 33.4314 39.3717 34.2787 38.4345 33.7159L36.7938 32.7306L35.153 33.7159C34.2159 34.2787 33.0649 33.4314 33.3239 32.3694L33.7159 30.7617L32.0801 29.166C31.3374 28.4414 31.7696 27.1794 32.8006 27.0623L34.7512 26.8409L35.6861 24.9093ZM37.7287 27.377L36.7938 25.4454L35.8588 27.377C35.675 27.7569 35.3093 28.016 34.89 28.0636L32.9394 28.2851L34.5753 29.8808C34.8868 30.1847 35.0146 30.6305 34.9115 31.0533L34.5195 32.6609L36.1603 31.6757C36.5501 31.4415 37.0374 31.4415 37.4274 31.6757L39.0681 32.6609L38.6761 31.0533C38.5729 30.6305 38.7008 30.1847 39.0123 29.8808L40.6481 28.2851L38.6976 28.0636C38.2782 28.016 37.9126 27.7569 37.7287 27.377Z" fill="black"/>
<path fill-rule="evenodd" clip-rule="evenodd" d="M50.5763 24.9093C51.0245 23.9833 52.3435 23.9833 52.7917 24.9093L53.7266 26.8409L55.6772 27.0623C56.7082 27.1794 57.1404 28.4414 56.3977 29.166L54.7619 30.7617L55.1539 32.3694C55.4129 33.4314 54.2619 34.2787 53.3248 33.7159L51.684 32.7306L50.0433 33.7159C49.1061 34.2787 47.9551 33.4314 48.2141 32.3694L48.6062 30.7617L46.9704 29.166C46.2276 28.4414 46.6599 27.1794 47.6909 27.0623L49.6414 26.8409L50.5763 24.9093ZM52.619 27.377L51.684 25.4454L50.7491 27.377C50.5653 27.7569 50.1996 28.016 49.7802 28.0636L47.8297 28.2851L49.4655 29.8808C49.777 30.1847 49.9049 30.6305 49.8017 31.0533L49.4097 32.6609L51.0504 31.6757C51.4404 31.4415 51.9277 31.4415 52.3176 31.6757L53.9583 32.6609L53.5663 31.0533C53.4632 30.6305 53.591 30.1847 53.9025 29.8808L55.5384 28.2851L53.5878 28.0636C53.1685 28.016 52.8028 27.7569 52.619 27.377Z" fill="black"/>
<path d="M54.0065 70.7339V68.9503C54.0065 67.4342 55.3687 66.2916 56.8841 66.3278C61.8178 66.4454 65.6695 64.7459 68.1056 63.0268C69.4026 62.1122 71.331 62.1801 72.2859 63.4473L73.0509 64.463C73.7522 65.3933 73.7137 66.6991 72.8789 67.5119C66.6972 73.5296 59.8005 73.6884 55.8013 72.9911C54.7239 72.8032 54.0065 71.827 54.0065 70.7339Z" fill="black"/>
<path d="M50.6153 64.0473C54.5006 68.1581 60.0058 67.1301 63.1062 66.193C69.3069 64.3187 73.114 60.1228 69.7405 48.9617C69.1117 46.8818 66.6228 45.3642 64.2207 46.8474C63.6996 47.1691 63.0282 47.1966 62.485 46.9136C60.4484 45.8527 58.887 46.9642 58.0181 47.9175C57.6681 48.3015 56.9549 48.2372 56.7603 47.7555L55.834 45.4633L54.4909 41.5511C53.7882 39.2258 51.5351 37.3691 49.2099 38.072C46.8847 38.7748 47.0467 42.1094 47.9325 45.0402L51.607 56.1345L48.579 54.5121C47.5697 53.9713 45.1327 53.1853 43.4599 54.3676C41.7871 55.55 41.8376 57.3957 43.0813 58.7116C44.3249 60.0273 48.1279 61.4156 50.6153 64.0473Z" fill="white"/>
<path fill-rule="evenodd" clip-rule="evenodd" d="M49.1602 53.4274L49.4687 53.5926L46.7642 45.4271C46.7608 45.4168 46.7575 45.4065 46.7544 45.3962C46.2891 43.8564 45.9789 42.1091 46.1436 40.5882C46.3097 39.0534 47.021 37.4479 48.8538 36.894C50.4455 36.4129 51.9789 36.8281 53.17 37.6717C54.3409 38.501 55.233 39.7713 55.6618 41.172L56.9872 45.0327L57.615 46.586C58.083 46.1676 58.6819 45.7532 59.4061 45.499C60.4738 45.1244 61.7271 45.1312 63.0536 45.8222C63.208 45.9027 63.418 45.8967 63.5741 45.8003C65.1325 44.838 66.7887 44.8287 68.1534 45.4476C69.4802 46.0493 70.5022 47.229 70.9179 48.6057C72.6431 54.3133 72.6225 58.5155 71.1197 61.599C69.601 64.7156 66.7203 66.3861 63.4622 67.3711C60.3373 68.3154 54.1451 69.5738 49.7208 64.8926C48.6039 63.7108 47.1608 62.7787 45.7541 61.9444C45.5282 61.8104 45.2983 61.6761 45.0706 61.5431C44.6165 61.2777 44.1706 61.0173 43.7812 60.7739C43.2016 60.4118 42.6139 60.0087 42.1868 59.5569C41.3781 58.7011 40.886 57.5943 40.948 56.4243C41.0114 55.2281 41.6457 54.1429 42.7496 53.3627C43.9305 52.528 45.309 52.4356 46.4186 52.5723C47.5339 52.7096 48.5406 53.0954 49.1602 53.4274ZM55.834 45.4633L56.7603 47.7555C56.9549 48.2372 57.668 48.3015 58.0181 47.9175C58.8869 46.9642 60.4484 45.8527 62.485 46.9136C63.0281 47.1966 63.6996 47.1691 64.2207 46.8474C66.6227 45.3642 69.1116 46.8818 69.7405 48.9617C73.1139 60.1228 69.3069 64.3187 63.1062 66.193C60.0058 67.1301 54.5005 68.1581 50.6152 64.0473C49.1581 62.5056 47.2496 61.3907 45.6685 60.4671C44.5505 59.814 43.5963 59.2566 43.0812 58.7116C41.8376 57.3957 41.7871 55.55 43.4599 54.3676C45.1327 53.1853 47.5696 53.9713 48.579 54.5121L51.6069 56.1345L47.9324 45.0402C47.0467 42.1094 46.8847 38.7748 49.2099 38.072C51.5351 37.3691 53.7881 39.2258 54.4908 41.5511L55.834 45.4633Z" fill="black"/>
<path fill-rule="evenodd" clip-rule="evenodd" d="M57.9392 51.6615C58.2694 51.5809 58.6023 51.7833 58.6829 52.1134L60.2052 58.3552C60.2857 58.6853 60.0834 59.0182 59.7532 59.0988C59.4231 59.1792 59.0902 58.9769 59.0096 58.6467L57.4873 52.4051C57.4067 52.0749 57.6091 51.742 57.9392 51.6615Z" fill="black"/>
<path fill-rule="evenodd" clip-rule="evenodd" d="M64.0766 50.908C64.4154 50.8819 64.7112 51.1355 64.7373 51.4743L65.0417 55.4325C65.0678 55.7713 64.8143 56.0671 64.4754 56.0932C64.1366 56.1192 63.8408 55.8656 63.8147 55.5268L63.5103 51.5687C63.4842 51.2299 63.7378 50.9341 64.0766 50.908Z" fill="black"/>
</svg>
