<svg width="85" height="77" viewBox="0 0 85 77" fill="none" xmlns="http://www.w3.org/2000/svg">
<path d="M11.4806 27.0161C11.2471 26.3873 11.6214 25.7065 12.3167 25.4953L40.9462 16.8005C41.6415 16.5893 42.3945 16.9278 42.6281 17.5565L55.1727 51.3312C55.4062 51.9599 55.0318 52.6408 54.3365 52.852L25.707 61.547C25.0117 61.7578 24.2587 61.4197 24.0252 60.791L11.4806 27.0161Z" fill="black"/>
<path d="M8.19497 25.5305C7.96141 24.9018 8.33581 24.2209 9.03115 24.0097L37.6606 15.3149C38.356 15.1037 39.1089 15.4422 39.3425 16.071L51.887 49.8456C52.1206 50.4744 51.7462 51.1552 51.0508 51.3664L22.4214 60.0614C21.7261 60.2722 20.9731 59.9339 20.7396 59.3052L8.19497 25.5305Z" fill="white"/>
<path fill-rule="evenodd" clip-rule="evenodd" d="M8.60826 22.8712L37.2377 14.1764C38.6284 13.754 40.1344 14.4311 40.6015 15.6886L53.146 49.4632C53.6131 50.7207 52.8644 52.0826 51.4737 52.5049L22.8442 61.1999C21.4536 61.6221 19.9476 60.9453 19.4805 59.6875L6.93595 25.9129C6.46887 24.6554 7.21758 23.2936 8.60826 22.8712ZM9.03114 24.0097C8.3358 24.2209 7.9614 24.9018 8.19495 25.5305L20.7395 59.3052C20.973 59.9339 21.726 60.2722 22.4214 60.0614L51.0508 51.3664C51.7462 51.1552 52.1206 50.4744 51.887 49.8456L39.3424 16.071C39.1089 15.4422 38.3559 15.1037 37.6605 15.3149L9.03114 24.0097Z" fill="black"/>
<path fill-rule="evenodd" clip-rule="evenodd" d="M16.7682 30.4357C16.6515 30.1213 16.8387 29.7808 17.1863 29.6752L34.2396 24.4961C34.5872 24.3906 34.9638 24.5598 35.0805 24.8742C35.1973 25.1886 35.0101 25.529 34.6625 25.6346L17.6092 30.8137C17.2615 30.9193 16.8851 30.75 16.7682 30.4357Z" fill="black"/>
<path fill-rule="evenodd" clip-rule="evenodd" d="M18.1281 34.0972C18.0113 33.7828 18.1985 33.4423 18.5462 33.3368L35.5994 28.1577C35.9471 28.0521 36.3236 28.2213 36.4404 28.5357C36.5571 28.8501 36.3699 29.1906 36.0223 29.2961L18.969 34.4752C18.6214 34.5809 18.2449 34.4116 18.1281 34.0972Z" fill="black"/>
<path fill-rule="evenodd" clip-rule="evenodd" d="M19.4884 37.7588C19.3716 37.4444 19.5588 37.104 19.9065 36.9984L36.9597 31.8193C37.3074 31.7137 37.6839 31.8829 37.8006 32.1973C37.9174 32.5117 37.7302 32.8522 37.3825 32.9578L20.3293 38.1369C19.9816 38.2424 19.6051 38.0732 19.4884 37.7588Z" fill="black"/>
<path fill-rule="evenodd" clip-rule="evenodd" d="M20.8482 41.4203C20.7315 41.1059 20.9187 40.7654 21.2663 40.6598L38.3195 35.4807C38.6672 35.3752 39.0437 35.5444 39.1605 35.8588C39.2773 36.1732 39.0901 36.5136 38.7424 36.6192L21.6892 41.7983C21.3415 41.9039 20.965 41.7346 20.8482 41.4203Z" fill="black"/>
<path fill-rule="evenodd" clip-rule="evenodd" d="M22.2079 45.0817C22.0912 44.7673 22.2784 44.4268 22.626 44.3212L39.6793 39.1421C40.0269 39.0366 40.4034 39.2058 40.5202 39.5202C40.637 39.8345 40.4498 40.175 40.1022 40.2806L23.0489 45.4597C22.7012 45.5653 22.3247 45.396 22.2079 45.0817Z" fill="black"/>
<path fill-rule="evenodd" clip-rule="evenodd" d="M31.7115 46.2649C31.8285 46.5793 31.6416 46.9198 31.294 47.0256L24.4091 49.1211C24.0616 49.2269 23.6849 49.0578 23.568 48.7435C23.451 48.4292 23.6379 48.0886 23.9855 47.9829L30.8703 45.8874C31.2179 45.7816 31.5945 45.9506 31.7115 46.2649Z" fill="black"/>
<path d="M45.1815 17.5406C45.3748 16.9008 46.1051 16.5238 46.8127 16.6985L75.9468 23.8934C76.654 24.0681 77.0711 24.7285 76.8778 25.3683L66.4972 59.7382C66.3043 60.3779 65.574 60.755 64.8664 60.5802L35.7323 53.3855C35.0248 53.2108 34.6078 52.5504 34.801 51.9105L45.1815 17.5406Z" fill="white"/>
<path fill-rule="evenodd" clip-rule="evenodd" d="M47.1626 15.5399L76.2968 22.7349C77.7119 23.0843 78.546 24.405 78.1595 25.6847L67.7789 60.0548C67.3924 61.3344 65.9317 62.0886 64.5165 61.7392L35.3824 54.544C33.9672 54.1945 33.1333 52.8738 33.5198 51.5941L43.9004 17.2242C44.2868 15.9445 45.7474 15.1905 47.1626 15.5399ZM46.8127 16.6985C46.105 16.5238 45.3748 16.9008 45.1815 17.5406L34.801 51.9105C34.6078 52.5504 35.0248 53.2108 35.7323 53.3855L64.8664 60.5802C65.574 60.755 66.3042 60.3779 66.4972 59.7382L76.8778 25.3683C77.0711 24.7285 76.654 24.0681 75.9468 23.8934L46.8127 16.6985Z" fill="black"/>
<path fill-rule="evenodd" clip-rule="evenodd" d="M59.3927 47.5212C59.6492 47.5869 59.8375 47.7849 59.8707 48.0241L60.6909 53.9215C60.7366 54.2505 60.4788 54.5509 60.1149 54.5922C59.751 54.6336 59.4189 54.4004 59.3732 54.0714L58.7485 49.5795L55.5808 53.1454C55.3511 53.4039 54.9332 53.4452 54.6472 53.2375C54.3613 53.0298 54.3157 52.6518 54.5454 52.3933L58.6942 47.723C58.8611 47.535 59.1362 47.4556 59.3927 47.5212Z" fill="black"/>
<path fill-rule="evenodd" clip-rule="evenodd" d="M56.2712 50.6845C56.3678 50.3647 56.7329 50.1761 57.0867 50.2635L59.8579 50.9478C60.2116 51.0352 60.4201 51.3654 60.3235 51.6853C60.2269 52.0052 59.8617 52.1937 59.5079 52.1063L56.7368 51.422C56.383 51.3347 56.1746 51.0045 56.2712 50.6845Z" fill="black"/>
<path fill-rule="evenodd" clip-rule="evenodd" d="M63.375 50.7486C63.7287 50.836 63.9372 51.1662 63.8406 51.4861L63.3187 53.2142C63.222 53.5341 62.8569 53.7227 62.5031 53.6353C62.1493 53.5479 61.9408 53.2177 62.0374 52.8978L62.5594 51.1697C62.656 50.8498 63.0212 50.6612 63.375 50.7486Z" fill="black"/>
<path fill-rule="evenodd" clip-rule="evenodd" d="M64.535 52.5859C64.4384 52.9059 64.0733 53.0944 63.7195 53.007L61.8084 52.5351C61.4545 52.4477 61.2461 52.1175 61.3427 51.7976C61.4393 51.4777 61.8044 51.2891 62.1583 51.3765L64.0694 51.8485C64.4232 51.9359 64.6316 52.266 64.535 52.5859Z" fill="black"/>
<path d="M64.5349 36.6618C65.1138 36.363 65.3152 35.6963 64.9847 35.1728C64.6541 34.6494 63.9169 34.4673 63.338 34.7662L56.243 38.4293C55.606 38.7582 54.7948 38.5578 54.4311 37.9818L52.1602 34.3853C51.8297 33.8618 51.0924 33.6798 50.5136 33.9786C49.9346 34.2776 49.7333 34.9442 50.0638 35.4677L52.9924 40.1058C52.9928 40.1066 52.9926 40.1075 52.9918 40.1079C52.9911 40.1082 52.9907 40.1091 52.9912 40.1099L54.1865 42.003C54.187 42.0037 54.188 42.004 54.1888 42.0035C54.1895 42.0031 54.1905 42.0034 54.191 42.0041C54.1915 42.0047 54.1924 42.005 54.1932 42.0046L56.2868 40.9237C56.2876 40.9233 56.2879 40.9224 56.2874 40.9217C56.2869 40.921 56.2873 40.9201 56.288 40.9197L64.5349 36.6618Z" fill="white"/>
<path fill-rule="evenodd" clip-rule="evenodd" d="M55.5845 37.3863L62.6794 33.7233C63.8953 33.0955 65.4438 33.4779 66.138 34.5774C66.8325 35.6769 66.4095 37.0771 65.1934 37.7048L57.0247 41.9222C56.999 41.9377 56.9725 41.9526 56.9453 41.9666L54.8517 43.0475C54.5352 43.2109 54.1758 43.2438 53.8496 43.1651C53.5164 43.0858 53.2174 42.8903 53.0331 42.5984L51.8378 40.7054C51.8221 40.6804 51.8075 40.6553 51.7939 40.6298L48.9104 36.0631C48.2162 34.9637 48.6391 33.5635 49.855 32.9357C51.0709 32.308 52.6193 32.6904 53.3136 33.7898L55.5845 37.3863ZM64.9846 35.1728C65.3152 35.6963 65.1138 36.363 64.5349 36.6618L56.288 40.9197C56.2872 40.9201 56.2869 40.921 56.2874 40.9217C56.2875 40.922 56.2876 40.9222 56.2876 40.9225C56.2876 40.923 56.2872 40.9234 56.2868 40.9237L54.1932 42.0046C54.1924 42.005 54.1914 42.0047 54.191 42.0041C54.1905 42.0034 54.1895 42.0031 54.1888 42.0035C54.188 42.004 54.1869 42.0037 54.1865 42.003L52.9912 40.1099C52.9907 40.1092 52.991 40.1082 52.9918 40.1079C52.9926 40.1075 52.9928 40.1066 52.9924 40.1058L50.0638 35.4677C49.7333 34.9442 49.9346 34.2776 50.5135 33.9786C51.0924 33.6798 51.8296 33.8618 52.1601 34.3853L54.431 37.9818C54.7947 38.5578 55.606 38.7582 56.2429 38.4293L63.3379 34.7662C63.9168 34.4673 64.6541 34.6494 64.9846 35.1728Z" fill="black"/>
</svg>
