<svg width="85" height="85" viewBox="0 0 85 85" fill="none" xmlns="http://www.w3.org/2000/svg">
<path d="M13.2102 36.0458C13.2102 31.817 16.6384 28.3889 20.8671 28.3889H68.3321C72.5609 28.3889 75.9887 31.817 75.9887 36.0458V64.7834C75.9887 69.012 72.5609 72.4406 68.3321 72.4406H20.8671C16.6383 72.4406 13.2102 69.012 13.2102 64.7834V36.0458Z" fill="black"/>
<path d="M10.2874 30.5706C10.2874 27.7515 12.5727 25.4661 15.3919 25.4661H67.9614C70.7804 25.4661 73.0661 27.7515 73.0661 30.5706V64.4129C73.0661 67.2323 70.7804 69.5174 67.9614 69.5174H15.3919C12.5727 69.5174 10.2874 67.2323 10.2874 64.4129V30.5706Z" fill="white"/>
<path fill-rule="evenodd" clip-rule="evenodd" d="M15.3919 24.1899H67.9615C71.4857 24.1899 74.3425 27.0467 74.3425 30.5707V64.4129C74.3425 67.9369 71.4857 70.7937 67.9615 70.7937H15.3919C11.868 70.7937 9.01123 67.9369 9.01123 64.4129V30.5707C9.01123 27.0467 11.868 24.1899 15.3919 24.1899ZM15.3919 25.4661C12.5728 25.4661 10.2874 27.7515 10.2874 30.5707V64.4129C10.2874 67.2323 12.5728 69.5174 15.3919 69.5174H67.9615C70.7805 69.5174 73.0662 67.2323 73.0662 64.4129V30.5707C73.0662 27.7515 70.7805 25.4661 67.9615 25.4661H15.3919Z" fill="black"/>
<path d="M34.6284 29.1195C34.6284 27.9762 35.5553 27.0493 36.6987 27.0493H46.6544C47.7978 27.0493 48.7247 27.9762 48.7247 29.1195C48.7247 30.263 47.7978 31.1899 46.6544 31.1899H36.6987C35.5553 31.1899 34.6284 30.263 34.6284 29.1195Z" fill="black"/>
<path fill-rule="evenodd" clip-rule="evenodd" d="M19.7813 36.8553H34.4663C36.5807 36.8553 38.2947 38.5693 38.2947 40.6837V60.2234C38.2947 62.3377 36.5807 64.0518 34.4663 64.0518H19.7813C17.6669 64.0518 15.9529 62.3377 15.9529 60.2234V40.6837C15.9529 38.5693 17.6669 36.8553 19.7813 36.8553ZM19.7813 38.1314C18.3717 38.1314 17.229 39.2741 17.229 40.6837V60.2234C17.229 61.633 18.3717 62.7757 19.7813 62.7757H34.4663C35.8759 62.7757 37.0186 61.633 37.0186 60.2234V40.6837C37.0186 39.2741 35.8759 38.1314 34.4663 38.1314H19.7813Z" fill="black"/>
<path fill-rule="evenodd" clip-rule="evenodd" d="M22.479 54.3845C22.8268 55.1951 23.5656 55.7915 24.545 56.1995C25.6035 56.6406 26.8638 56.8246 27.9593 56.8246C29.0548 56.8246 30.3152 56.6406 31.3737 56.1995C32.3531 55.7915 33.0919 55.1951 33.4396 54.3845C33.083 53.6052 32.2127 52.9962 31.1011 52.5686C29.9237 52.1158 28.6532 51.937 27.9593 51.937C27.2655 51.937 25.9949 52.1158 24.8176 52.5686C23.706 52.9962 22.8356 53.6052 22.479 54.3845ZM24.3594 51.3775C25.6861 50.8673 27.1122 50.6609 27.9593 50.6609C28.8065 50.6609 30.2325 50.8673 31.5592 51.3775C32.8592 51.8776 34.2496 52.7424 34.7284 54.1791C34.7721 54.31 34.7721 54.4516 34.7284 54.5826C34.2633 55.9779 33.1156 56.8563 31.8645 57.3775C30.6116 57.8996 29.1753 58.1008 27.9593 58.1008C26.7434 58.1008 25.3071 57.8996 24.0542 57.3775C22.8031 56.8563 21.6553 55.9779 21.1902 54.5826C21.1466 54.4516 21.1466 54.31 21.1902 54.1791C21.669 52.7424 23.0595 51.8776 24.3594 51.3775Z" fill="black"/>
<path fill-rule="evenodd" clip-rule="evenodd" d="M25.5719 42.6657C25.3133 42.2719 24.8571 42.0513 24.3853 42.096C23.896 42.1422 23.4768 42.4653 23.3074 42.9267C22.8946 44.0514 22.9948 45.1149 23.6673 45.9208C23.8246 46.1093 24.0003 46.2674 24.1846 46.3997C24.105 46.7042 24.0626 47.0236 24.0626 47.3524C24.0626 49.4297 25.7466 51.1137 27.8238 51.1137C29.8763 51.1137 31.5447 49.4698 31.5844 47.427C31.6038 47.2308 31.6312 46.8352 31.5872 46.4984C31.4203 45.018 30.7061 43.9878 29.6254 43.4229C28.6451 42.9105 27.5172 42.8648 26.6267 42.9143C26.178 42.9392 25.8942 42.8494 25.7378 42.7728C25.6325 42.7213 25.5835 42.6761 25.5719 42.6657ZM30.3205 46.6546C30.0769 44.432 28.3415 44.0971 26.6975 44.1885C26.278 44.2118 25.9218 44.1676 25.6251 44.0866C24.9915 43.9139 24.6298 43.5738 24.5054 43.3664C24.2194 44.1456 24.3264 44.6915 24.6171 45.0659C24.6545 45.114 24.6949 45.1593 24.7378 45.2019C25.0518 45.513 25.5039 45.68 25.9209 45.754C25.6415 46.0863 25.4475 46.4929 25.3729 46.9399C25.3504 47.0741 25.3387 47.2119 25.3387 47.3524C25.3387 48.7249 26.4514 49.8376 27.8238 49.8376C29.1963 49.8376 30.309 48.7249 30.309 47.3524C30.3256 47.2098 30.3513 46.8705 30.3205 46.6546Z" fill="black"/>
<path fill-rule="evenodd" clip-rule="evenodd" d="M28.5254 54.0224C28.5254 53.67 28.8111 53.3843 29.1635 53.3843H30.9902C31.3426 53.3843 31.6283 53.67 31.6283 54.0224C31.6283 54.3748 31.3426 54.6605 30.9902 54.6605H29.1635C28.8111 54.6605 28.5254 54.3748 28.5254 54.0224Z" fill="black"/>
<path fill-rule="evenodd" clip-rule="evenodd" d="M42.0132 56.5749C42.0132 56.2224 42.2989 55.9368 42.6513 55.9368H55.6809C56.0333 55.9368 56.3189 56.2224 56.3189 56.5749C56.3189 56.9273 56.0333 57.2129 55.6809 57.2129H42.6513C42.2989 57.2129 42.0132 56.9273 42.0132 56.5749Z" fill="black"/>
<path fill-rule="evenodd" clip-rule="evenodd" d="M42.0132 52.6845C42.0132 52.3321 42.2989 52.0464 42.6513 52.0464H66.5205C66.8732 52.0464 67.1587 52.3321 67.1587 52.6845C67.1587 53.0369 66.8732 53.3226 66.5205 53.3226H42.6513C42.2989 53.3226 42.0132 53.0369 42.0132 52.6845Z" fill="black"/>
<path fill-rule="evenodd" clip-rule="evenodd" d="M42.0132 48.7875C42.0132 48.4351 42.2989 48.1494 42.6513 48.1494H66.5205C66.8732 48.1494 67.1587 48.4351 67.1587 48.7875C67.1587 49.1398 66.8732 49.4255 66.5205 49.4255H42.6513C42.2989 49.4255 42.0132 49.1398 42.0132 48.7875Z" fill="black"/>
<path fill-rule="evenodd" clip-rule="evenodd" d="M42.0129 44.8904C42.0129 44.538 42.2986 44.2523 42.651 44.2523H66.5205C66.8725 44.2523 67.1587 44.538 67.1587 44.8904C67.1587 45.2428 66.8725 45.5285 66.5205 45.5285H42.651C42.2986 45.5285 42.0129 45.2428 42.0129 44.8904Z" fill="black"/>
<path d="M42.1333 39.0144C42.1333 38.2578 42.7467 37.6444 43.5034 37.6444H65.9113C66.6678 37.6444 67.2814 38.2578 67.2814 39.0144C67.2814 39.7711 66.6678 40.3845 65.9113 40.3845H43.5034C42.7467 40.3845 42.1333 39.7711 42.1333 39.0144Z" fill="black"/>
<path d="M38.2363 15.1121C38.2363 14.4072 38.8077 13.8359 39.5125 13.8359H43.8409C44.5457 13.8359 45.117 14.4072 45.117 15.1121V28.9369H38.2363V15.1121Z" fill="white"/>
<path fill-rule="evenodd" clip-rule="evenodd" d="M46.3932 30.213H36.9602V15.1121C36.9602 13.7025 38.1029 12.5597 39.5125 12.5597H43.8409C45.2505 12.5597 46.3932 13.7025 46.3932 15.1121V30.213ZM39.5125 13.8359C38.8077 13.8359 38.2363 14.4072 38.2363 15.1121V28.9369H45.1171V15.1121C45.1171 14.4072 44.5457 13.8359 43.8409 13.8359H39.5125Z" fill="black"/>
<path d="M43.4426 17.2458C43.4426 18.2211 42.6519 19.0117 41.6767 19.0117C40.7015 19.0117 39.9109 18.2211 39.9109 17.2458C39.9109 16.2706 40.7015 15.48 41.6767 15.48C42.6519 15.48 43.4426 16.2706 43.4426 17.2458Z" fill="black"/>
</svg>
