<svg xmlns="http://www.w3.org/2000/svg" viewBox="0 0 32 32"><defs><style>.cls-1{fill:#231f20;}</style></defs><g id="E-learning"><path class="cls-1" d="M27,2H5A3,3,0,0,0,2,5V19a3,3,0,0,0,3,3H27a3,3,0,0,0,3-3V5A3,3,0,0,0,27,2ZM17,18a1,1,0,0,1-1-1c0-2.21-1.35-4-3-4H11c-1.65,0-3,1.79-3,4a1,1,0,0,1-2,0c0-2.86,1.68-5.25,3.91-5.85a3,3,0,1,1,4.18,0c2.23.6,3.91,3,3.91,5.85A1,1,0,0,1,17,18Zm8-2H22a1,1,0,0,1,0-2h3a1,1,0,0,1,0,2Zm0-4H19a1,1,0,0,1,0-2h6a1,1,0,0,1,0,2Zm0-4H22a1,1,0,0,1,0-2h3a1,1,0,0,1,0,2Z"/><path class="cls-1" d="M27,24H5a3,3,0,0,0,0,6H27a3,3,0,0,0,0-6Z"/><circle class="cls-1" cx="12" cy="9" r="1"/></g></svg>