<svg xmlns="http://www.w3.org/2000/svg" viewBox="0 0 32 32"><defs><style>.cls-1{fill:#231f20;}</style></defs><g id="Achievement"><path class="cls-1" d="M17,11.15,16,9.23l-.94,1.92a1,1,0,0,1-.76.55l-2.11.3,1.53,1.5a1,1,0,0,1,.29.88l-.37,2.11,1.9-1a.93.93,0,0,1,.46-.12,1,1,0,0,1,.47.12l1.89,1L18,14.38a1,1,0,0,1,.29-.88L19.85,12l-2.12-.3A1,1,0,0,1,17,11.15Z"/><path class="cls-1" d="M16,2A11,11,0,0,0,5,13V29a1,1,0,0,0,.38.79,1,1,0,0,0,.86.18L15,27.76V24a1,1,0,0,1,2,0v3.81L25.76,30A1,1,0,0,0,26,30a1,1,0,0,0,1-1V13A11,11,0,0,0,16,2Zm6.7,10-2.61,2.54.62,3.59a1,1,0,0,1-.4,1,1.06,1.06,0,0,1-.59.19.93.93,0,0,1-.46-.12L16,17.51,12.81,19.2a1,1,0,0,1-1.05-.07,1,1,0,0,1-.4-1L12,14.56,9.37,12a1,1,0,0,1-.25-1,1,1,0,0,1,.8-.68l3.61-.53,1.61-3.26a1,1,0,0,1,1.79,0l1.61,3.26,3.6.53A1,1,0,0,1,22.7,12Z"/></g></svg>