<svg xmlns="http://www.w3.org/2000/svg" viewBox="0 0 32 32"><defs><style>.cls-1{fill:#231f20;}</style></defs><g id="Certificate"><path class="cls-1" d="M16.64,10.43,16,9.18l-.65,1.25a1,1,0,0,1-.61.5l-1.45.43.8.58a1,1,0,0,1,.41,1l-.2,1.3,1.25-.63a1,1,0,0,1,.9,0l1.27.63-.21-1.3a1,1,0,0,1,.42-1l.82-.56-1.48-.43A1,1,0,0,1,16.64,10.43Z"/><path class="cls-1" d="M23,2H9A3,3,0,0,0,6,5V27a3,3,0,0,0,3,3H23a3,3,0,0,0,3-3V5A3,3,0,0,0,23,2ZM18,25H14a1,1,0,0,1,0-2h4a1,1,0,0,1,0,2Zm2-3H12a1,1,0,0,1,0-2h8a1,1,0,0,1,0,2Zm1.6-10.2-2,1.41L20,15.8a1,1,0,0,1-.4,1,1,1,0,0,1-1,.09L16,15.58l-2.54,1.29A1.06,1.06,0,0,1,13,17a1,1,0,0,1-.58-.19,1,1,0,0,1-.4-1l.4-2.62-2-1.42a1,1,0,0,1-.4-1,1,1,0,0,1,.71-.79l3-.89L15.1,6.55a1,1,0,0,1,1.77,0l1.34,2.58L21.3,10a1,1,0,0,1,.71.8A1,1,0,0,1,21.6,11.8Z"/></g></svg>