<svg width="85" height="85" viewBox="0 0 85 85" fill="none" xmlns="http://www.w3.org/2000/svg">
<path d="M21.5493 18.8195C21.5493 16.1385 23.7227 13.9652 26.4037 13.9652H58.5069C61.1879 13.9652 63.3612 16.1385 63.3612 18.8195V65.5793C63.3612 68.2603 61.1879 70.4338 58.5069 70.4338H26.4037C23.7227 70.4338 21.5493 68.2603 21.5493 65.5793V18.8195Z" fill="white"/>
<path fill-rule="evenodd" clip-rule="evenodd" d="M26.4038 12.7516H58.507C61.8582 12.7516 64.5749 15.4683 64.5749 18.8195V65.5793C64.5749 68.9303 61.8582 71.647 58.507 71.647H26.4038C23.0525 71.647 20.3358 68.9303 20.3358 65.5793V18.8195C20.3358 15.4683 23.0525 12.7516 26.4038 12.7516ZM26.4038 13.9652C23.7228 13.9652 21.5494 16.1385 21.5494 18.8195V65.5793C21.5494 68.2603 23.7227 70.4338 26.4038 70.4338H58.507C61.1879 70.4338 63.3613 68.2603 63.3613 65.5793V18.8195C63.3613 16.1385 61.1879 13.9652 58.507 13.9652H26.4038Z" fill="black"/>
<path fill-rule="evenodd" clip-rule="evenodd" d="M26.2883 24.8822C26.2883 24.5471 26.56 24.2754 26.8951 24.2754H58.3677C58.7029 24.2754 58.9745 24.5471 58.9745 24.8822C58.9745 25.2173 58.7029 25.489 58.3677 25.489H26.8951C26.56 25.489 26.2883 25.2173 26.2883 24.8822Z" fill="black"/>
<path fill-rule="evenodd" clip-rule="evenodd" d="M26.2883 35.3292C26.2883 34.9941 26.56 34.7224 26.8951 34.7224H58.3677C58.7029 34.7224 58.9745 34.9941 58.9745 35.3292C58.9745 35.6643 58.7029 35.9361 58.3677 35.9361H26.8951C26.56 35.9361 26.2883 35.6643 26.2883 35.3292Z" fill="black"/>
<path fill-rule="evenodd" clip-rule="evenodd" d="M26.2883 38.5488C26.2883 38.2137 26.56 37.942 26.8951 37.942H58.3677C58.7029 37.942 58.9745 38.2137 58.9745 38.5488C58.9745 38.8839 58.7029 39.1556 58.3677 39.1556H26.8951C26.56 39.1556 26.2883 38.8839 26.2883 38.5488Z" fill="black"/>
<path fill-rule="evenodd" clip-rule="evenodd" d="M26.2883 41.7683C26.2883 41.4333 26.56 41.1616 26.8951 41.1616H58.3677C58.7029 41.1616 58.9745 41.4333 58.9745 41.7683C58.9745 42.1035 58.7029 42.3752 58.3677 42.3752H26.8951C26.56 42.3752 26.2883 42.1035 26.2883 41.7683Z" fill="black"/>
<path fill-rule="evenodd" clip-rule="evenodd" d="M26.2883 44.9222C26.2883 44.5871 26.56 44.3154 26.8951 44.3154H45.7524C46.0875 44.3154 46.3592 44.5871 46.3592 44.9222C46.3592 45.2573 46.0875 45.529 45.7524 45.529H26.8951C26.56 45.529 26.2883 45.2573 26.2883 44.9222Z" fill="black"/>
<path fill-rule="evenodd" clip-rule="evenodd" d="M26.2883 28.0288C26.2883 27.6937 26.56 27.4221 26.8951 27.4221H44.0751C44.4103 27.4221 44.6819 27.6937 44.6819 28.0288C44.6819 28.364 44.4103 28.6356 44.0751 28.6356H26.8951C26.56 28.6356 26.2883 28.364 26.2883 28.0288Z" fill="black"/>
<path fill-rule="evenodd" clip-rule="evenodd" d="M26.2883 56.8733C26.2883 56.5381 26.56 56.2665 26.8951 56.2665H35.6649C36 56.2665 36.2717 56.5381 36.2717 56.8733C36.2717 57.2084 36 57.4801 35.6649 57.4801H26.8951C26.56 57.4801 26.2883 57.2084 26.2883 56.8733Z" fill="black"/>
<path fill-rule="evenodd" clip-rule="evenodd" d="M50.8648 53.5912C51.0923 53.3636 51.4011 53.2358 51.7229 53.2358H55.777C56.4473 53.2358 56.9906 53.7791 56.9906 54.4493V60.5772C56.9906 61.0356 56.7323 61.4549 56.323 61.6611C55.9136 61.8672 55.423 61.8253 55.0547 61.5524L53.75 60.586L52.4452 61.5524C52.0769 61.8253 51.5863 61.8672 51.1769 61.6611C50.7675 61.4549 50.5093 61.0356 50.5093 60.5772V54.4493C50.5093 54.1275 50.6372 53.8188 50.8648 53.5912ZM53.75 59.0758L55.777 60.5772V54.4493H51.7229V60.5772L53.75 59.0758Z" fill="black"/>
<path d="M58.4992 52.7631C58.4992 53.3446 57.8184 53.6579 57.6224 54.1704C57.4233 54.6909 57.7061 55.4095 57.3438 55.82C56.9046 56.3176 56.1166 56.1466 55.5014 56.4186C54.9305 56.671 54.5422 57.3846 53.8778 57.3846C53.2134 57.3846 52.825 56.671 52.2541 56.4186C51.6389 56.1466 50.851 56.3176 50.4117 55.82C50.0494 55.4095 50.3323 54.6909 50.1331 54.1704C49.9371 53.6579 49.2563 53.3446 49.2563 52.7631C49.2563 52.1816 49.9371 51.8684 50.1331 51.3559C50.3098 50.8939 49.9852 50.2242 50.2922 49.8473C50.7006 49.3457 51.212 49.5048 51.7943 49.2102C52.4204 48.8935 53.1282 48.1417 53.8778 48.1417C54.6273 48.1417 55.3352 48.8935 55.9612 49.2102C56.5435 49.5048 57.055 49.3457 57.4634 49.8473C57.7704 50.2242 57.4457 50.8939 57.6224 51.3559C57.8184 51.8684 58.4992 52.1816 58.4992 52.7631Z" fill="white"/>
<path fill-rule="evenodd" clip-rule="evenodd" d="M52.624 49.4085C52.4549 49.5255 52.2644 49.6524 52.0683 49.7516C51.7601 49.9075 51.4397 49.9739 51.2351 50.0163C51.19 50.0256 51.1506 50.0338 51.1181 50.0415C50.931 50.0859 50.8502 50.1258 50.769 50.2228C50.7678 50.2309 50.7515 50.296 50.7688 50.5237C50.7706 50.5462 50.7726 50.5714 50.7749 50.5985C50.7838 50.7065 50.7953 50.8453 50.7961 50.9747C50.7971 51.1431 50.7824 51.3569 50.6999 51.5726C50.6174 51.7884 50.492 51.9626 50.3811 52.0969C50.3078 52.1854 50.2179 52.2822 50.1457 52.3599C50.1174 52.3904 50.0918 52.418 50.071 52.4409C49.8785 52.6536 49.8631 52.7238 49.8631 52.7631C49.8631 52.8024 49.8785 52.8727 50.071 53.0853C50.0918 53.1083 50.1174 53.1358 50.1457 53.1663C50.2179 53.244 50.3078 53.3408 50.3811 53.4294C50.492 53.5636 50.6174 53.7379 50.6999 53.9536C50.7822 54.169 50.8071 54.3837 50.8158 54.5606C50.8218 54.6849 50.8202 54.8221 50.8189 54.9336C50.8184 54.9718 50.818 55.0069 50.818 55.0376C50.8174 55.3484 50.8545 55.4046 50.8666 55.4185C50.9356 55.4966 51.0515 55.5541 51.3643 55.605C51.4097 55.6124 51.4627 55.6197 51.5213 55.6279C51.7874 55.6649 52.1703 55.7181 52.4994 55.8637C52.7125 55.9578 52.8914 56.0871 53.0359 56.2035C53.11 56.2632 53.2095 56.3493 53.2937 56.4223C53.3441 56.4659 53.3891 56.5048 53.4197 56.5304C53.658 56.7293 53.776 56.7777 53.8778 56.7777C53.9794 56.7777 54.0974 56.7293 54.3358 56.5304C54.3665 56.5048 54.4113 56.4659 54.4617 56.4223C54.5459 56.3493 54.6455 56.2632 54.7195 56.2035C54.864 56.0871 55.043 55.9578 55.256 55.8637C55.5852 55.7181 55.9681 55.6649 56.2341 55.6279C56.2928 55.6197 56.3458 55.6124 56.3912 55.605C56.704 55.5541 56.8199 55.4966 56.8889 55.4185C56.901 55.4046 56.938 55.3484 56.9375 55.0376C56.9374 55.0069 56.937 54.9718 56.9366 54.9336C56.9353 54.8221 56.9337 54.6849 56.9398 54.5606C56.9483 54.3837 56.9732 54.169 57.0556 53.9536C57.1382 53.7379 57.2634 53.5636 57.3745 53.4294C57.4476 53.3408 57.5376 53.244 57.6098 53.1663C57.6381 53.1358 57.6637 53.1083 57.6844 53.0853C57.877 52.8727 57.8924 52.8024 57.8924 52.7631C57.8924 52.7238 57.877 52.6536 57.6844 52.4409C57.6637 52.418 57.6381 52.3904 57.6098 52.3599C57.5376 52.2822 57.4476 52.1854 57.3745 52.0969C57.2634 51.9626 57.1382 51.7884 57.0556 51.5726C56.9731 51.3569 56.9584 51.1431 56.9594 50.9747C56.9601 50.8453 56.9716 50.7065 56.9806 50.5985C56.9829 50.5714 56.985 50.5462 56.9866 50.5237C57.004 50.296 56.9876 50.2309 56.9865 50.2228C56.9052 50.1258 56.8245 50.0859 56.6373 50.0415C56.6049 50.0338 56.5655 50.0256 56.5205 50.0163C56.3158 49.9739 55.9953 49.9075 55.6873 49.7516C55.491 49.6524 55.3005 49.5255 55.1315 49.4085C55.0736 49.3685 55.0188 49.3299 54.9657 49.2926C54.8526 49.2131 54.7469 49.1388 54.6343 49.0654C54.2969 48.8454 54.062 48.7485 53.8778 48.7485C53.6934 48.7485 53.4585 48.8454 53.1212 49.0654C53.0086 49.1388 52.9029 49.2131 52.7898 49.2926C52.7366 49.3299 52.6819 49.3685 52.624 49.4085ZM52.4583 48.0489C52.8187 47.8138 53.3125 47.5349 53.8778 47.5349C54.443 47.5349 54.9368 47.8138 55.2972 48.0489C55.4279 48.1342 55.5622 48.2285 55.6832 48.3135C55.7321 48.3478 55.7788 48.3807 55.8223 48.4107C55.9856 48.5238 56.1183 48.6096 56.2351 48.6687C56.3869 48.7455 56.5096 48.7717 56.6925 48.8106C56.7583 48.8247 56.832 48.8404 56.9177 48.8607C57.2291 48.9346 57.609 49.0651 57.9339 49.4641C58.2548 49.8583 58.2166 50.3571 58.1979 50.6013C58.1975 50.6062 58.1971 50.611 58.1968 50.6157C58.1936 50.6567 58.1906 50.6939 58.1878 50.7282C58.1796 50.8276 58.1734 50.9035 58.1729 50.9819C58.1723 51.0807 58.1833 51.1238 58.1891 51.1391C58.2046 51.1796 58.2379 51.2367 58.3097 51.3235C58.3607 51.3852 58.4084 51.4364 58.467 51.4992C58.5013 51.5362 58.5394 51.577 58.5841 51.6264C58.781 51.8438 59.1059 52.2209 59.1059 52.7631C59.1059 53.3054 58.781 53.6824 58.5841 53.8998C58.5394 53.9492 58.5013 53.9901 58.467 54.027C58.4084 54.0899 58.3607 54.1411 58.3097 54.2027C58.2379 54.2895 58.2046 54.3467 58.1891 54.3872C58.1719 54.4321 58.1576 54.5025 58.1519 54.6195C58.1477 54.7051 58.1487 54.7843 58.1498 54.8808C58.1503 54.9274 58.151 54.978 58.1511 55.0354C58.1516 55.3165 58.1489 55.8248 57.7987 56.2215C57.4284 56.641 56.9309 56.7468 56.5859 56.8028C56.4834 56.8195 56.3928 56.8326 56.3112 56.8445C56.0694 56.8795 55.9063 56.903 55.7468 56.9736C55.6743 57.0056 55.5907 57.0602 55.4809 57.1485C55.4078 57.2074 55.356 57.2528 55.2973 57.3043C55.247 57.3483 55.1917 57.3968 55.1135 57.462C54.8488 57.683 54.4404 57.9913 53.8778 57.9913C53.3151 57.9913 52.9067 57.683 52.642 57.462C52.5639 57.3968 52.5085 57.3483 52.4582 57.3043C52.3995 57.2528 52.3477 57.2074 52.2745 57.1485C52.1648 57.0602 52.0812 57.0056 52.0088 56.9736C51.8492 56.903 51.6861 56.8795 51.4444 56.8445C51.3627 56.8326 51.2721 56.8195 51.1695 56.8028C50.8247 56.7468 50.327 56.641 49.9567 56.2215C49.6066 55.8248 49.6039 55.3165 49.6044 55.0354C49.6045 54.978 49.6051 54.9274 49.6057 54.8808C49.6069 54.7843 49.6078 54.7051 49.6036 54.6195C49.5979 54.5025 49.5835 54.4321 49.5663 54.3872C49.5509 54.3467 49.5175 54.2895 49.4458 54.2027C49.3948 54.1411 49.3471 54.0899 49.2885 54.027C49.2542 53.9901 49.2161 53.9492 49.1714 53.8998C48.9745 53.6824 48.6495 53.3054 48.6495 52.7631C48.6495 52.2209 48.9745 51.8438 49.1714 51.6264C49.2161 51.577 49.2542 51.5362 49.2885 51.4992C49.3471 51.4364 49.3948 51.3852 49.4458 51.3235C49.5175 51.2367 49.5509 51.1796 49.5663 51.1391C49.5722 51.1238 49.5831 51.0807 49.5825 50.9819C49.5821 50.9035 49.5758 50.8276 49.5677 50.7282C49.5649 50.6939 49.5618 50.6567 49.5587 50.6157C49.5584 50.611 49.558 50.6062 49.5576 50.6013C49.5389 50.3571 49.5007 49.8583 49.8216 49.4641C50.1465 49.0651 50.5264 48.9346 50.8379 48.8607C50.9235 48.8404 50.9971 48.8247 51.063 48.8106C51.2459 48.7717 51.3686 48.7455 51.5204 48.6687C51.6372 48.6096 51.7699 48.5238 51.9331 48.4107C51.9766 48.3807 52.0234 48.3478 52.0723 48.3135C52.1933 48.2285 52.3276 48.1342 52.4583 48.0489Z" fill="black"/>
<path fill-rule="evenodd" clip-rule="evenodd" d="M56.1605 52.6924C56.1605 53.9865 55.1215 55.0562 53.8147 55.0562C52.5079 55.0562 51.469 53.9865 51.469 52.6924C51.469 51.3984 52.5079 50.3288 53.8147 50.3288C55.1215 50.3288 56.1605 51.3984 56.1605 52.6924ZM53.8147 54.1129C54.5893 54.1129 55.2172 53.477 55.2172 52.6924C55.2172 51.9079 54.5893 51.2719 53.8147 51.2719C53.0402 51.2719 52.4122 51.9079 52.4122 52.6924C52.4122 53.477 53.0402 54.1129 53.8147 54.1129Z" fill="black"/>
</svg>
