<svg width="85" height="85" viewBox="0 0 85 85" fill="none" xmlns="http://www.w3.org/2000/svg">
<path d="M22.5474 59.3746C22.5474 58.1533 21.5574 57.1632 20.3361 57.1632C19.1148 57.1632 18.1248 58.1533 18.1248 59.3746V63.2153C18.1248 64.4366 19.1148 65.4266 20.3361 65.4266C21.5574 65.4266 22.5474 64.4366 22.5474 63.2153V59.3746Z" fill="black"/>
<path d="M66.4251 59.3746C66.4251 58.1533 65.435 57.1632 64.2138 57.1632C62.9925 57.1632 62.0024 58.1533 62.0024 59.3746V63.2153C62.0024 64.4366 62.9925 65.4266 64.2138 65.4266C65.435 65.4266 66.4251 64.4366 66.4251 63.2153V59.3746Z" fill="black"/>
<path d="M70.9683 19.115H14.0316C10.7309 19.115 8.05505 21.7908 8.05505 25.0916V56.3654C8.05505 59.6662 10.7309 62.342 14.0316 62.342H70.9683C74.2691 62.342 76.9449 59.6662 76.9449 56.3654V25.0916C76.9449 21.7908 74.2691 19.115 70.9683 19.115Z" fill="white" stroke="black" stroke-linecap="round" stroke-linejoin="round"/>
<path d="M70.2933 21.65H14.5448C12.3443 21.65 10.5604 23.4338 10.5604 25.6343V56.1963C10.5604 58.3968 12.3443 60.1807 14.5448 60.1807H70.2933C72.4938 60.1807 74.2777 58.3968 74.2777 56.1963V25.6343C74.2777 23.4338 72.4938 21.65 70.2933 21.65Z" stroke="black" stroke-linecap="round" stroke-linejoin="round"/>
<path d="M26.1187 47.9447C28.3042 47.9447 30.0758 46.1731 30.0758 43.9876C30.0758 41.8022 28.3042 40.0305 26.1187 40.0305C23.9333 40.0305 22.1616 41.8022 22.1616 43.9876C22.1616 46.1731 23.9333 47.9447 26.1187 47.9447Z" fill="white" stroke="black"/>
<path d="M34.731 47.9447C36.9165 47.9447 38.6881 46.1731 38.6881 43.9876C38.6881 41.8022 36.9165 40.0305 34.731 40.0305C32.5456 40.0305 30.7739 41.8022 30.7739 43.9876C30.7739 46.1731 32.5456 47.9447 34.731 47.9447Z" fill="white" stroke="black"/>
<path d="M43.3441 47.9447C45.5295 47.9447 47.3012 46.1731 47.3012 43.9876C47.3012 41.8022 45.5295 40.0305 43.3441 40.0305C41.1586 40.0305 39.387 41.8022 39.387 43.9876C39.387 46.1731 41.1586 47.9447 43.3441 47.9447Z" fill="white" stroke="black"/>
<path d="M65.0782 45.3679C67.2893 44.0913 68.0469 41.264 66.7703 39.0529C65.4937 36.8417 62.6664 36.0841 60.4552 37.3607C58.2441 38.6373 57.4865 41.4647 58.7631 43.6758C60.0397 45.8869 62.8671 46.6445 65.0782 45.3679Z" fill="black"/>
</svg>
