<svg xmlns="http://www.w3.org/2000/svg" viewBox="0 0 32 32"><defs><style>.cls-1{fill:#231f20;}</style></defs><g id="Bagpack"><polygon class="cls-1" points="12 20 12 22.59 13.41 24 18.59 24 20 22.59 20 20 12 20 12 20"/><path class="cls-1" d="M10.83,14H21.17a1,1,0,0,0,.71-.29L26,8.82V6a1,1,0,0,0-1-1H20a3,3,0,0,0-3-3H15a3,3,0,0,0-3,3H7A1,1,0,0,0,6,6V9.59l4.12,4.12A1,1,0,0,0,10.83,14ZM15,4h2a1,1,0,0,1,1,1H14A1,1,0,0,1,15,4Z"/><path class="cls-1" d="M28,19h2V18a3,3,0,0,0-3-3H26V11.92l-2.65,3.14a3,3,0,0,1-2.18.94H10.83a3,3,0,0,1-2.12-.88L6,12.41V15H5a3,3,0,0,0-3,3v1H4a1,1,0,0,1,0,2H2v2a3,3,0,0,0,3,3H6a4,4,0,0,0,4,4H22a4,4,0,0,0,4-4h1a3,3,0,0,0,3-3V21H28a1,1,0,0,1,0-2Zm-6,3.59A2,2,0,0,1,21.41,24L20,25.41a2,2,0,0,1-1.41.59H13.41A2,2,0,0,1,12,25.41L10.59,24A2,2,0,0,1,10,22.59V20a2,2,0,0,1,2-2h8a2,2,0,0,1,2,2Z"/></g></svg>