<svg width="85" height="83" viewBox="0 0 85 83" fill="none" xmlns="http://www.w3.org/2000/svg">
<path d="M19.3547 47.0485C19.3547 44.9004 21.1385 43.159 23.3391 43.159H72.3471C73.045 43.159 73.4056 44.2948 72.9062 44.7706C71.6571 45.9603 70.3429 47.8109 70.3429 50.3291C70.3429 52.9285 71.7434 54.8556 73.0264 56.0756C73.5205 56.5454 73.1678 57.6327 72.4779 57.6327H23.3391C21.1385 57.6327 19.3547 55.8913 19.3547 53.7432V47.0485Z" fill="black"/>
<path d="M14.6257 32.4811C14.6257 30.333 16.4096 28.5916 18.6101 28.5916H66.1094C66.1094 28.5916 62.4312 30.9092 62.0482 35.2891C61.6653 39.669 66.1094 41.9562 66.1094 41.9562H18.6101C16.4096 41.9562 14.6257 40.2148 14.6257 38.0667V32.4811Z" fill="white"/>
<path fill-rule="evenodd" clip-rule="evenodd" d="M66.8325 29.6792L66.8305 29.6804L66.8179 29.6889C66.8006 29.7002 66.7714 29.7201 66.7315 29.7483C66.6518 29.8049 66.5303 29.895 66.3795 30.0177C66.077 30.2641 65.664 30.6371 65.2404 31.1307C64.39 32.1211 63.5331 33.5517 63.3716 35.3994C63.2228 37.1012 63.998 38.4245 64.9091 39.3836C65.363 39.8614 65.8314 40.2263 66.1867 40.4711C66.3631 40.5925 66.5084 40.6821 66.6054 40.7391C66.6532 40.7676 66.689 40.7877 66.7109 40.7994C66.7216 40.8053 66.7282 40.8091 66.7315 40.8107L66.7302 40.8102L66.7295 40.8098C66.7309 40.8103 66.7329 40.8114 66.7329 40.8114C67.2701 41.0904 67.545 41.6905 67.3989 42.2676C67.2522 42.8462 66.7202 43.2527 66.1094 43.2527H18.6101C15.6761 43.2527 13.2976 40.9309 13.2976 38.0667V32.4811C13.2976 29.6169 15.6761 27.2951 18.6101 27.2951H66.1094C66.6983 27.2951 67.217 27.6737 67.3836 28.2251C67.5497 28.775 67.3259 29.3657 66.8338 29.6782L66.8325 29.6792ZM64.3345 40.6597C65.2592 41.5186 66.1094 41.9562 66.1094 41.9562H18.6101C16.4096 41.9562 14.6257 40.2148 14.6257 38.0667V32.4811C14.6257 30.333 16.4096 28.5916 18.6101 28.5916H66.1094C66.1094 28.5916 65.4124 29.0308 64.5936 29.8881C63.5315 31.0002 62.2645 32.8159 62.0482 35.2891C61.8328 37.7532 63.1452 39.5549 64.3345 40.6597Z" fill="black"/>
<path d="M11.2174 62.7251C11.2174 60.5769 13.0013 58.8356 15.2018 58.8356H62.7011C62.7011 58.8356 59.3651 60.8716 58.811 65.4326C58.2569 69.9943 62.7011 72.2003 62.7011 72.2003H15.2018C13.0013 72.2003 11.2174 70.4585 11.2174 68.3108V62.7251Z" fill="white"/>
<path fill-rule="evenodd" clip-rule="evenodd" d="M63.4085 59.9329C63.4086 59.9328 63.4083 59.9329 63.4085 59.9329C63.4077 59.9333 63.407 59.9338 63.4063 59.9342C63.4063 59.9342 63.4062 59.9342 63.4063 59.9342M61.2183 60.1321C62.0178 59.2526 62.7011 58.8356 62.7011 58.8356H15.2018C13.0013 58.8356 11.2174 60.5769 11.2174 62.7251V68.3108C11.2174 70.4585 13.0013 72.2003 15.2018 72.2003H62.7011C62.7011 72.2003 61.8391 71.7725 60.9216 70.9038C59.756 69.7998 58.501 67.9854 58.811 65.4326C59.1143 62.9359 60.2513 61.1958 61.2183 60.1321ZM63.3041 71.0451C63.3054 71.0458 63.3067 71.0464 63.3079 71.0471C63.3086 71.0471 63.3085 71.0471 63.3079 71.0471C63.8523 71.32 64.1354 71.9209 63.9926 72.5024C63.8495 73.0852 63.3154 73.4968 62.7011 73.4968H15.2018C12.2678 73.4968 9.88928 71.1748 9.88928 68.3108V62.7251C9.88928 59.8609 12.2678 57.5391 15.2018 57.5391H62.7011C63.2935 57.5391 63.8143 57.9221 63.9777 58.478C64.1403 59.0315 63.9096 59.6229 63.4119 59.9307C63.4109 59.9314 63.4095 59.9322 63.4085 59.9329M63.3071 71.0464C63.3045 71.0451 63.2978 71.0419 63.2876 71.036C63.2672 71.025 63.2323 71.0062 63.1851 70.979C63.0907 70.9252 62.9485 70.839 62.7757 70.721C62.4277 70.4837 61.9705 70.1278 61.5322 69.6559C60.6613 68.7185 59.9115 67.3838 60.1299 65.5855C60.3714 63.5977 61.2145 62.1732 61.9923 61.244C62.3826 60.7778 62.755 60.4382 63.0227 60.2198C63.1563 60.111 63.2626 60.0331 63.3304 59.9857C63.3642 59.962 63.3884 59.946 63.4014 59.9375L63.4085 59.9329L63.4071 59.9337L63.4063 59.9342M63.3071 71.0464H63.3064L63.3049 71.0451" fill="black"/>
<path d="M23.3333 47.0763H54.2931" stroke="white" stroke-width="2" stroke-linecap="round" stroke-linejoin="round"/>
<path d="M23.3333 50.396H40.2334" stroke="white" stroke-width="2" stroke-linecap="round" stroke-linejoin="round"/>
<path d="M51.0977 28.1467H56.6007V36.0945C56.6007 36.672 55.8854 36.9613 55.467 36.5529L54.3188 35.4319C54.0594 35.1788 53.639 35.1788 53.3796 35.4319L52.2313 36.5529C51.813 36.9613 51.0977 36.672 51.0977 36.0945V28.1467Z" fill="black"/>
<path d="M14.2441 62.1982H45.204" stroke="black" stroke-width="2" stroke-linecap="round" stroke-linejoin="round"/>
<path d="M14.2441 65.5181H31.1442" stroke="black" stroke-width="2" stroke-linecap="round" stroke-linejoin="round"/>
<path d="M18.2207 32.0578H44.2099" stroke="black" stroke-width="2" stroke-linecap="round" stroke-linejoin="round"/>
</svg>
