<svg xmlns="http://www.w3.org/2000/svg" viewBox="0 0 32 32"><defs><style>.cls-1{fill:#231f20;}</style></defs><g id="Discuss"><circle class="cls-1" cx="9" cy="16" r="1"/><circle class="cls-1" cx="16" cy="15" r="1"/><path class="cls-1" d="M27,8h-.41L24.9,4.56A1,1,0,0,0,24,4h0a1,1,0,0,0-.89.54L21.33,8H5a3.07,3.07,0,0,0-3,3.12V24.88A3.07,3.07,0,0,0,5,28H27a3.07,3.07,0,0,0,3-3.12V11.12A3.07,3.07,0,0,0,27,8ZM26,23a1,1,0,0,1-2,0c0-2.17-2.84-4-6.2-4H14.2C10.84,19,8,20.83,8,23a1,1,0,0,1-2,0,5.28,5.28,0,0,1,2.24-4.11A3,3,0,1,1,12,16a3,3,0,0,1-.3,1.29A10.13,10.13,0,0,1,13.79,17a3,3,0,1,1,4.42,0,10.13,10.13,0,0,1,2.09.27A3,3,0,0,1,20,16a3,3,0,1,1,3.76,2.89A5.28,5.28,0,0,1,26,23Z"/><circle class="cls-1" cx="23" cy="16" r="1"/></g></svg>